/* XPM */
static char *_578598578434[] = {
/* columns rows colors chars-per-pixel */
"64 64 31 1 ",
"  c #AAB7DA",
". c #ADBBDD",
"X c #B1BDDF",
"o c #AFBBE1",
"O c #B2BEE1",
"+ c #B1C0DF",
"@ c #B4C3E5",
"# c #B8C7E6",
"$ c #B9C8E7",
"% c #B6C6E8",
"& c #B9C7E9",
"* c #B5C8E8",
"= c #BCCBEC",
"- c #BECCF1",
"; c #BED1F1",
": c #C0D1EF",
"> c #C3D3F4",
", c #C5D9F7",
"< c #C7D7F8",
"1 c #C4DCF8",
"2 c #CADEFC",
"3 c #CEE3FE",
"4 c #D1E6FE",
"5 c #D5EBFF",
"6 c #DAEFFE",
"7 c #D6F0FF",
"8 c #DCF3FF",
"9 c #DEF8FF",
"0 c #E1F3FF",
"q c #E4FAFF",
"w c #E9FFFF",
/* pixels */
"q589606080666q86q5q4q848986558666566458687q8q54qq768886805q85086",
"3@@O@@OO&@@.XO@OO . 38$.@@#X..@&=@oOX@@O@&4:=&&@&&@@@@OX=O@=&$=8",
"4O@O&..O.. .@@X @.  5q@ #@O..O@@@.OO@@@@ @83=$@ @&&@@O@@#@&@@@*q",
"= OX% X@ O==@@OO*&@.45@@#O...@@O .@#@@@O@@53=O@.X@@@@O@@O==@O@&5",
"4O#X@   OX......OO@O56&:OO@OO*&@@@@@XXOO@=7>@.&@oOO@%@@O.@@.O@=8",
",X. @.OO@. .@@@X   O06@O@@@OO@O.@O@@O@O  =q>OO&@@@O@@XOX@..O@@&8",
"4@.       OO   @X OO34O.@O  O@  .  XO@.  &6>=@@X.@@OXXX.&XO@@@&4",
"q44444438413343323826q54434456548765345586q58424346644464384346q",
"88880q3q85q888667888686656q58q586088888q588068868688886566066608",
"@@..O#&76#   @@.O  .O..O@.@O:4&@   .OX.O&**@OO@@X>6=.X@=OXOOO@@#",
"o@*O  X64@@#. ..O. O@.O*XX.@>q=@X@O@=&@#@@@@O@#@#=6OX@@.=OXX@@@.",
"O@@&O.@86..@.X@. .@@O  OOO.O&8@X.@=&@@O@XX@@@@&@XOq&@O.@$%XO@O. ",
"=*X.+$&80  @O@O .@&@. ..XOo@&8$+O@@OX..@$@&&@@#X Xq=@@ @.@&&X.O&",
"@&@O X@57.X=@O..O@@ X@@.. .@>0&@@@..@@@@&&@O.O@O.=6@O@@.@o@@$@@#",
" X@@.@@48.  .@       O.     =3@XO. .XO@.@... .@..:6=. X*@. O@@X ",
"453,2838q14442266545644343538w4535556633445434436668643433484213",
"88888885q487875884q606q00665876080885q8788789888q6669q88846q4q86",
"OOO@@ooO@o++@@=86@%O#.OOOX..@@O@@OO@=4>-=&==*&&&=$&==&&&@=87X.O&",
"oOOOo o.*@o.  @58XXO:O@&..  @OoO=@&@=9>-;---====@@&==$@@==88OO@.",
"@@@OO@Ooo.oo@@@86@&X% @O@@@@&&@@&@&@*8;=====&*&&O@&==@*@&=89 .@O",
"@o..oOOo...o%@@86@@X%XOO+@O.OO.X@O*o@8;-=&&&@@@&O@&===&=@&98 .@O",
"oo..O@@oo.oooo@86. @&%#=@$@O@OO%=OO.*8>=-=*&&@*&@&&&&@@$==88O@@ ",
"o@@@@@@O. o@oo=85O.@OO O.X. ... .  .*4,-@@O@@@@@@&&&&@@*@=85..O@",
">373332<53553448858026445543564257455q7543348875444874446508283,",
"888q388868485q686685w64qq6q86606874qq7q766q88q4848q0606688588860",
"@@3=&&>==>;=O@*&===@=@:65###&.XO@@O&*o@.O@&-35@OOO@OOO#=*@@@@o.@",
"@@q=-@=-@=;@oo&&@O=#:&=6q#O@=@.O@@@=&*&OOO*-99@oO@@@XO@=X@&&*..@",
"@&9-@:@@O@&.OO&&&@@@=&=84@OO&=@.@@*&@&&O&&&&88o@O@@@@@@O X@@@..@",
"O@8&@=O@-@&@&@&*&&#@#@*66*@X&==&&&&@O%&O&*@&85.@O.X@=&@X OOO@..+",
"O@9&@O@@=@@*-&&@@*=&@@@8q=@@#@@=&O*OO&%-&@@&98o @X.O@@@@o@@@#@@@",
"@=5=@O@@@@@=&&**#=@X.@#55@@.O X@O @OO@O%&O@&57OoOO.O@X.. O@@@@O@",
"388q26333888264434235q36q563560683885834523498343444444525656322",
"86660688888q68q5q06q604q605q6880q666606888986q868889889898688855",
"=@O@OOX@==42O.@@@@O@@OX#=@@&&@=4>&&&==@=*&$@#&&@=@&=34-&@*&=@@@&",
"=@@@*@@@@@04. XXX@O@OOX=@O@O&*=8,==&@@O@&&&=&#*==O@=8q&@@@@@&&&=",
"@@#&&=&@@O63.@@@o@O@X..@OO=.@=@03:=&&@X@@@@&*XO*&@=@58O&Oooo+@&@",
"@#&@@@O@&&62X&==O*&OO  @@@@@o@.61=&*&=@=&&#&&@@*&&;&68O&O@@@.o+%",
"@&$@XO@@O=85&@. .O@O@X@&@X =.@ q1&@@*&@#===&&&&&@%&&88o@oOO@@+*%",
"OO@.X@@X.=43=X    . @@@@@. &o@@62&@OO@XO&#@@@#@+OO@@33@@.   @&@O",
"4444564>306663246542845335352886q422443566424643<433q93835545654",
"68886868608866868660606868956qq60686605q8586q66q988855888883947q",
"XO@OOO@O@OXX@@@@&>4&OOO .@@@OX.   O X@$53&&O@X X@@&@@o@O=@&=q8&+",
"&=&#@@@@OO@@@@X..*q&O*#@@@=&@OoOXXOO@.+q4@@@#@=&=@@@.X@&@@&O33.@",
"@@@@X@OOO@&#@oO@O@0&OO .@.XX. ...O..=@@85@@&@@=@@O@@O.O&@*=O8q@@",
"OOX.X@@X@##@OX$>&$q=O...O..OXO.X #O .@@44@&@@X@@.oO&@OOOoOO 38 .",
"&#O..XOO+@O@@@@O@=q&.O@@@OO@%OX O@@.X .62@#OXX@$*@&*@@*O@@@@37.&",
"OO.     .  @@O  .=3@  ..X.XOOX  X  OX .81@@.O..X==OO.+@Ooo @58..",
"44444554433344434569434546664443,8033856q44264455664385>3835783q",
"5950qq40866608866660090668q4q64q066qq6608860868808888860608680q6",
"@&X&48OOXOO@X.X@OO%OXO@&=46O@OX .OO@@OOO.XX@@O@55&OO@&@O@O@***OX",
" @@&,4.@@@OO@@OOOO@OOO@#O2qO&%$@o@@@@@%#&===@@Oq6&@*XO@#@.=&@@.@",
"@O.@46 #&@OO@@@@OOOO@@X @>0@& O%@&&O O&&&=#@@>@06. @#==O@@@*@  @",
"@@.@68 @O@@@OOO@@OOXOO. @>8O# @%@&@. X#&@@.X.>X70O.#&==O@&O@@ @#",
". .=66 X@@@@@OX@OO@OOXO@O,0X@@=#.@@O.@#*@. @X@X86=&&O@@@.& &# =@",
"@X @46XX@..O@O...OOX .O*O>3 OO@X XOOX@@X.  @@O&84@X.XO. .@ @@.&.",
",8546q56334852443333344426q465463445543,65456446q553343556456553",
"868q56q68048q66886866686q866088578q688585088085q06066040q4q46650",
"@.XOO@#@.&@&48=@=@@ O.@&O@@@OX@@@;51#@O@O$&#*@@@#&&%X%&44*=O@@@=",
"@O&#O@#@&&@&88  O@X@.@O@.@@OOOOOX=83O@@@X*@@@@@@O@@% X@0q@#@O@@#",
"@@#&OX@@@@O@84 @ OX=@=@&O@@O@@@.@&4,O#&O@==@&=@@&&O:O#%0q.#&&$&@",
"@OXX==@@.@&.40O$OX#.&X&@O@@X@@@O=:5,O#&.@==@$=&@@@O>O&@68.*&=@@@",
"=@O@==*&*==&88@.@@&X@X@@O@&@@&&&&>84*@@O@&&@@*@@O@@=OO@q0+*@&@X.",
"X@@O@X.@@@.=04@O@@O=O@ ..@@@OO@&X=4,@@O@@@@X@XX@@@&=@O#64@@+@O .",
">>==2>=1=2>>604>::>::::;>===>>::>4841>=>>1>:>=:32>>>>:>6q>2>,>=2"
};
